# xmcd
#
# Track frame offsets: 
#        150
#        14005
#        28275
#        42642
#        56482
#        69815
#        82897
#        95932
#        108190
#        119227
#        131267
#        143837
#        156352
#        166790
#        179090
#        189827
#        202492
#        214380
#        225387
#        238140
#        248652
#        260117
#        271880
#        283477
#        295052
#        308245
#        319082
#        331572
#        344042
#
# Disc length: 4762 seconds
#
# Revision: 2
# Processed by: cddbd v1.5.2PL0 Copyright (c) Steve Scherf et al.
# Submitted via: ExactAudioCopyFreeDBPlugin 1.0
#
DISCID=c812981d
DTITLE=Various Artist - Blowing the Fuse:  459 R&B Classics, 1945-196
DTITLE=0 [Bear Family]
DYEAR=1955
DGENRE=Rhythm and Blues
TTITLE0=LaVerne Baker - Tweedlee Dee
TTITLE1=Lowell Fulson - Reconsider Baby
TTITLE2=The Moonglows - Sincerely
TTITLE3=Jimmy Reed - You Don't Have to Go
TTITLE4=Etta James - The Wall Flower (Roll with Me Henry)
TTITLE5=The Penguins - Earth Angel
TTITLE6=Ray Charles - I've Got a Woman
TTITLE7=Gene and Eunice - Ko Ko Mo
TTITLE8=Johnny Ace - Pledging My Love
TTITLE9=Little Walter - My Babe
TTITLE10=Joe Turner - Flip, Flop and Fly
TTITLE11=Clyde McPhatter - What'cha Gonna Do
TTITLE12=The Nutmegs - Story Untold
TTITLE13=Bo Diddley - Bo Diddley
TTITLE14=Nappy Brown - Don't Be Angry
TTITLE15=The Jacks - Why Don't You Write Me?
TTITLE16=Louis Brooks - It's Love Baby
TTITLE17=Fats Domino - Ain't It a Shame
TTITLE18=Shirley and Lee - Feel So Good
TTITLE19=Chuck Berry - Maybellene
TTITLE20=Smiley Lewis - I Hear You Knocking
TTITLE21=The El Dorados - At My Front Door (Crazy Little Mama)
TTITLE22=Sonny Boy Williamson - Don't Start Me to Talkin'
TTITLE23=The Platters - Only You
TTITLE24=The Turbans - When You Dance
TTITLE25=Little Richard - Tutti Frutti
TTITLE26=Jay McShann and Priscilla Bowman - Hands Off
TTITLE27=The Robins - Smokey Joe's Café
TTITLE28=Little Willie John - All Around the World
EXTD=
EXTT0=
EXTT1=
EXTT2=
EXTT3=
EXTT4=
EXTT5=
EXTT6=
EXTT7=
EXTT8=
EXTT9=
EXTT10=
EXTT11=
EXTT12=
EXTT13=
EXTT14=
EXTT15=
EXTT16=
EXTT17=
EXTT18=
EXTT19=
EXTT20=
EXTT21=
EXTT22=
EXTT23=
EXTT24=
EXTT25=
EXTT26=
EXTT27=
EXTT28=
PLAYORDER=
